<svg width="170" height="56" viewBox="0 0 170 56" fill="none" xmlns="http://www.w3.org/2000/svg">
<path d="M160.967 0.700238C160.907 1.10251 160.848 2.5477 160.863 3.94819C160.863 6.73427 161.026 7.53881 161.98 9.96732C162.546 11.4125 164.23 14.2284 164.513 14.2284C164.632 14.2284 164.93 13.8112 165.183 13.2898C167.224 9.22238 166.748 5.16989 163.872 2.14543C162.814 1.04291 161.548 -7.62939e-06 161.25 -7.62939e-06C161.161 -7.62939e-06 161.041 0.312868 160.967 0.700238Z" fill="white"/>
<path d="M159.954 10.757C159.343 12.232 159.477 14.0347 160.49 18.3405C160.818 19.7112 161.146 21.3799 161.235 22.0652C161.324 22.7505 161.429 23.3465 161.458 23.3763C161.518 23.4508 163.082 22.4526 164.796 21.2458C167.224 19.5175 168.655 18.0127 169.444 16.2993C169.876 15.3607 169.921 15.1074 169.981 13.4388C170.025 12.0532 169.996 11.6211 169.861 11.6211C169.549 11.6211 168.297 12.6193 167.344 13.6325C166.36 14.6903 165.377 16.0759 164.289 17.9829C163.902 18.6683 163.515 19.2642 163.425 19.3089C163.142 19.4877 163.038 19.0407 163.038 17.7296C163.023 15.3756 161.98 11.9936 160.833 10.608C160.609 10.3547 160.386 10.1312 160.326 10.1312C160.267 10.1312 160.088 10.4143 159.954 10.757Z" fill="white"/>
<path d="M157.674 18.5046C156.825 19.7412 156.661 20.5755 156.378 25.0601C156.259 26.8777 156.065 28.7848 155.931 29.2615C155.797 29.7383 155.723 30.1555 155.752 30.1853C155.782 30.2151 156.602 29.9022 157.585 29.485C158.553 29.0679 160.192 28.4123 161.22 28.01C164.692 26.6691 166.033 25.9391 167.075 24.8366C167.671 24.2108 168.521 22.855 168.521 22.5273C168.521 22.274 165.898 22.2889 164.602 22.572C163.172 22.8699 162.323 23.3914 160.609 25.0005C159.79 25.7752 159.075 26.3712 159.03 26.3116C158.97 26.252 159.045 25.8944 159.194 25.507C159.537 24.6429 159.686 21.7525 159.447 20.5308C159.239 19.3389 158.658 17.9682 158.36 17.9086C158.211 17.8788 157.957 18.1023 157.674 18.5046Z" fill="white"/>
<path d="M154.024 25.3729C153.503 25.6112 152.832 26.2221 151.536 27.6375L149.748 29.5743L148.258 32.5988C147.439 34.2675 146.768 35.668 146.768 35.7127C146.768 35.8616 149.539 35.6382 151.163 35.3849C155.901 34.625 159.611 33.3288 161.265 31.8837C161.891 31.3324 162.412 30.6173 162.412 30.3044C162.412 30.2448 161.652 30.2448 160.743 30.2895C158.658 30.3938 157.54 30.7215 155.186 31.9135C153.011 33.0011 151.998 33.4182 151.73 33.3139C151.491 33.2097 151.685 32.8819 152.802 31.5112C153.517 30.6173 154.59 28.5165 154.799 27.563C154.992 26.7585 155.007 25.2239 154.843 25.1196C154.769 25.0749 154.411 25.1941 154.024 25.3729Z" fill="white"/>
<path d="M13.6405 9.40678C15.7186 9.40678 17.6249 9.9224 19.3592 10.9536C21.0936 11.9849 22.4842 13.3755 23.5311 15.1255C24.5936 16.8599 25.1248 18.7895 25.1248 20.9145C25.1248 21.352 25.1014 21.7973 25.0545 22.2504C24.992 22.8286 24.7264 23.3208 24.2577 23.727C23.8045 24.1176 23.2889 24.3129 22.7108 24.3129L6.32808 24.3364C6.59371 25.4614 7.0937 26.516 7.82807 27.5004C8.56244 28.4848 9.45306 29.2817 10.4999 29.891C11.5624 30.5004 12.7187 30.8051 13.9687 30.8051C15.3124 30.8051 16.5155 30.477 17.578 29.8207C18.6405 29.1645 19.4686 28.4067 20.0624 27.5473C20.2499 27.2504 20.5311 27.0004 20.9061 26.7973C21.2967 26.5942 21.6639 26.4926 22.0077 26.4926C22.6483 26.4926 23.1952 26.727 23.6483 27.1957C24.117 27.6645 24.3514 28.2192 24.3514 28.8598C24.3514 29.3598 24.2108 29.8051 23.9295 30.1957C22.9608 31.6176 21.6249 32.8519 19.9217 33.8988C18.2343 34.9301 16.2733 35.4457 14.039 35.4457C12.2421 35.4457 10.5702 35.0941 9.02338 34.391C7.49214 33.6879 6.15621 32.7269 5.01559 31.5082C3.87497 30.2895 2.98436 28.891 2.34373 27.3129C1.71874 25.7192 1.40624 24.0395 1.40624 22.2739C1.40624 20.5708 1.71874 18.9536 2.34373 17.4224C2.96873 15.8755 3.83591 14.5005 4.94528 13.2974C6.07027 12.0943 7.37495 11.149 8.85932 10.4615C10.3437 9.75834 11.9374 9.40678 13.6405 9.40678ZM20.2967 19.6255C19.9999 18.0942 19.2342 16.7895 17.9999 15.7114C16.7655 14.6333 15.3124 14.0943 13.6405 14.0943C11.9374 14.0943 10.4296 14.6489 9.11713 15.7583C7.82026 16.8677 6.94527 18.1645 6.49215 19.6489L20.2967 19.6255ZM48.1159 9.33647C48.6784 9.33647 49.1862 9.56303 49.6394 10.0162C50.1081 10.4693 50.3425 10.9693 50.3425 11.5161C50.3425 12.0005 50.2644 12.399 50.1081 12.7114L40.2175 34.1097C39.7957 35.0004 39.0769 35.4457 38.0613 35.4457C37.0144 35.4457 36.3113 34.9691 35.952 34.016L27.0926 12.6177C26.9676 12.3521 26.9051 11.9849 26.9051 11.5161C26.9051 11.0161 27.1161 10.5318 27.5379 10.063C27.9754 9.57866 28.4598 9.33647 28.9911 9.33647C30.2098 9.33647 31.0223 9.82084 31.4285 10.7896L38.2488 27.3832L45.866 10.6958C46.2878 9.78959 47.0378 9.33647 48.1159 9.33647ZM64.7321 9.33647C66.5289 9.33647 68.2008 9.68022 69.7477 10.3677C71.3102 11.0552 72.6773 12.0083 73.8492 13.2271C75.0211 14.4458 75.9351 15.8442 76.5914 17.4224C77.2632 19.0005 77.5992 20.6801 77.5992 22.4614C77.5992 24.2114 77.2632 25.8754 76.5914 27.4535C75.9195 29.016 74.9898 30.3988 73.8023 31.602C72.6305 32.7894 71.2633 33.7269 69.7008 34.4144C68.1539 35.1019 66.4977 35.4457 64.7321 35.4457C62.9821 35.4457 61.3259 35.1097 59.7634 34.4379C58.2165 33.766 56.8493 32.8363 55.6618 31.6488C54.49 30.4613 53.5681 29.0863 52.8962 27.5239C52.2243 25.9457 51.8884 24.2582 51.8884 22.4614C51.8884 20.6801 52.2243 19.0005 52.8962 17.4224C53.5681 15.8442 54.49 14.4536 55.6618 13.2505C56.8493 12.0318 58.2165 11.0786 59.7634 10.3912C61.3102 9.68803 62.9665 9.33647 64.7321 9.33647ZM56.6228 22.5083C56.6228 24.0239 56.9899 25.4067 57.7243 26.6567C58.4743 27.891 59.4665 28.8754 60.7009 29.6098C61.9352 30.3441 63.2868 30.7113 64.7555 30.7113C66.2555 30.7113 67.6149 30.3363 68.8336 29.5863C70.068 28.8207 71.0445 27.8129 71.7633 26.5629C72.4977 25.3129 72.8648 23.9458 72.8648 22.4614C72.8648 20.9458 72.5055 19.5552 71.7867 18.2895C71.068 17.0083 70.0914 15.9849 68.8571 15.2192C67.6383 14.4536 66.2633 14.0708 64.7321 14.0708C63.1852 14.0708 61.8024 14.4614 60.5837 15.2427C59.3649 16.0083 58.3962 17.0317 57.6774 18.313C56.9743 19.5786 56.6228 20.977 56.6228 22.5083ZM84.1607 0.805277C84.9107 0.805277 85.5123 1.05527 85.9654 1.55527C86.4185 2.03964 86.6372 2.57089 86.6216 3.14901V33.3363C86.6216 33.9613 86.3716 34.4691 85.8716 34.8597C85.3873 35.2347 84.9029 35.4222 84.4185 35.4222C83.7466 35.4222 83.1607 35.2035 82.6607 34.766C82.1763 34.3285 81.9342 33.766 81.9342 33.0785V3.14901C81.9342 2.55527 82.1451 2.01621 82.567 1.53183C83.0045 1.04746 83.5357 0.805277 84.1607 0.805277ZM108.371 31.8363C107.527 32.6488 106.519 33.4691 105.347 34.2972C104.175 35.1097 102.8 35.516 101.222 35.516C99.1753 35.516 97.4722 34.9769 96.1128 33.8988C94.7534 32.8051 93.7535 31.5395 93.1128 30.102C92.6128 28.9613 92.3082 27.8364 92.1988 26.727C92.105 25.602 92.0582 24.5473 92.0582 23.5629V11.7271C92.0582 11.0865 92.2847 10.5396 92.7378 10.0865C93.2066 9.61772 93.7613 9.38335 94.4019 9.38335C95.0425 9.38335 95.5894 9.61772 96.0425 10.0865C96.5112 10.5396 96.7456 11.0865 96.7456 11.7271V23.5629C96.7456 24.4692 96.7847 25.3207 96.8628 26.1176C96.9566 26.8989 97.1362 27.5864 97.4019 28.1801C97.7144 28.8676 98.1831 29.4848 98.8081 30.0316C99.4331 30.5629 100.222 30.8285 101.175 30.8285C103.488 30.8285 105.261 29.9457 106.496 28.1801C107.746 26.4145 108.363 24.0317 108.347 21.0317L108.324 11.6802C108.324 11.0396 108.55 10.4927 109.003 10.0396C109.472 9.57084 110.027 9.33647 110.667 9.33647C111.324 9.33647 111.878 9.57084 112.331 10.0396C112.785 10.4927 113.011 11.0474 113.011 11.7036L113.058 33.2426C113.058 33.8832 112.878 34.4379 112.519 34.9066C112.175 35.3597 111.683 35.5863 111.042 35.5863C110.402 35.5863 109.91 35.3597 109.566 34.9066C109.222 34.4379 108.956 33.8832 108.769 33.2426L108.371 31.8363ZM130.823 9.21928C131.979 9.21928 133.104 9.45366 134.198 9.9224C135.307 10.3755 136.291 10.9536 137.151 11.6568C138.026 12.3443 138.674 13.0552 139.096 13.7896L139.354 11.5396C139.354 10.899 139.541 10.3521 139.916 9.89897C140.291 9.43022 140.799 9.19585 141.44 9.19585C142.08 9.19585 142.627 9.43022 143.08 9.89897C143.549 10.3521 143.783 10.899 143.783 11.5396V11.5865L143.737 33.2894C143.737 33.9301 143.502 34.4847 143.033 34.9535C142.58 35.4066 142.033 35.6332 141.393 35.6332C140.752 35.6332 140.244 35.4066 139.869 34.9535C139.494 34.4847 139.307 33.9301 139.307 33.2894L139.049 31.4145C138.237 32.8051 137.049 33.8441 135.487 34.5316C133.924 35.2035 132.354 35.5394 130.776 35.5394C129.01 35.5394 127.354 35.1957 125.807 34.5082C124.26 33.8051 122.901 32.8441 121.729 31.6254C120.557 30.4066 119.635 29.0082 118.963 27.4301C118.307 25.852 117.979 24.1879 117.979 22.4379C117.979 20.7036 118.299 19.0473 118.94 17.4692C119.596 15.8755 120.502 14.4614 121.659 13.2271C122.83 11.9771 124.19 11.0005 125.737 10.2974C127.299 9.57866 128.994 9.21928 130.823 9.21928ZM138.908 22.3911C138.908 20.8598 138.549 19.4536 137.83 18.1724C137.127 16.8911 136.166 15.8599 134.948 15.0786C133.729 14.2974 132.338 13.9068 130.776 13.9068C129.244 13.9068 127.862 14.2974 126.627 15.0786C125.393 15.8599 124.416 16.8989 123.698 18.1958C122.979 19.477 122.62 20.8676 122.62 22.3676C122.62 23.8833 122.987 25.2895 123.721 26.5864C124.455 27.8676 125.44 28.8988 126.674 29.6801C127.924 30.4613 129.299 30.852 130.799 30.852C132.299 30.852 133.659 30.4613 134.877 29.6801C136.112 28.8988 137.088 27.8676 137.807 26.5864C138.541 25.2895 138.908 23.8911 138.908 22.3911Z" fill="white"/>
<path d="M18.2027 43.6184C18.2027 43.5319 18.2325 43.4575 18.292 43.3953C18.3542 43.3331 18.4272 43.302 18.511 43.302H22.5715C22.6554 43.302 22.727 43.3304 22.7865 43.3872C22.846 43.4413 22.8758 43.5103 22.8758 43.5941C22.8758 43.6779 22.846 43.7523 22.7865 43.8172C22.727 43.8794 22.654 43.9105 22.5675 43.9105H20.8394V48.685C20.8394 48.7688 20.8083 48.8405 20.7461 48.9C20.6839 48.9594 20.6109 48.9892 20.5271 48.9892C20.4432 48.9892 20.3729 48.9594 20.3161 48.9C20.2593 48.8405 20.2309 48.7688 20.2309 48.685V43.9105H18.507C18.4231 43.9105 18.3515 43.8835 18.292 43.8294C18.2325 43.7726 18.2027 43.7023 18.2027 43.6184ZM29.3807 48.7296C29.3807 48.808 29.351 48.8756 29.2915 48.9324C29.2347 48.9892 29.1765 49.0176 29.117 49.0176C29.063 49.0176 29.0129 49.0041 28.9669 48.977C28.921 48.9527 28.8872 48.9338 28.8655 48.9202C28.6276 48.7499 28.4193 48.5511 28.2408 48.3239C28.0651 48.0968 27.9163 47.852 27.7946 47.5897C27.6811 47.3409 27.5607 47.1449 27.4336 47.0015C27.3092 46.8555 27.1591 46.7514 26.9833 46.6892C26.8076 46.6243 26.5845 46.5905 26.314 46.5878L25.8435 46.5837L25.8475 48.6647V48.6728C25.8475 48.7539 25.8164 48.8256 25.7542 48.8878C25.6947 48.9473 25.6244 48.977 25.5433 48.977C25.4595 48.977 25.3878 48.9473 25.3283 48.8878C25.2688 48.8256 25.2391 48.7526 25.2391 48.6687L25.2269 43.5982C25.2269 43.5116 25.2566 43.44 25.3161 43.3832C25.3756 43.3264 25.4459 43.2966 25.5271 43.2939L26.6061 43.2899H26.6994C27.1564 43.2899 27.5594 43.3494 27.9082 43.4683C28.2571 43.5873 28.5302 43.7712 28.7276 44.02C28.925 44.2661 29.0237 44.5825 29.0237 44.9692C29.0237 45.2397 28.9669 45.4776 28.8534 45.6832C28.7398 45.886 28.5911 46.0564 28.4072 46.1943C28.2233 46.3322 28.0245 46.435 27.8109 46.5026C27.9326 46.6243 28.0529 46.8001 28.1719 47.0299C28.3287 47.3301 28.4842 47.6005 28.6384 47.8412C28.7925 48.0819 28.9967 48.2942 29.2509 48.4781C29.3374 48.5403 29.3807 48.6241 29.3807 48.7296ZM26.7197 43.8983H25.8354L25.8435 46.0361C25.857 46.0334 25.8746 46.032 25.8962 46.032L26.7278 46.0239C27.2254 46.0185 27.6324 45.9347 27.9488 45.7724C28.2652 45.6075 28.4234 45.333 28.4234 44.949C28.4234 44.6839 28.3463 44.4757 28.1922 44.3243C28.038 44.1701 27.8311 44.0606 27.5715 43.9957C27.3146 43.9308 27.0307 43.8983 26.7197 43.8983ZM32.1618 49.0054C32.078 49.0054 32.0063 48.9757 31.9468 48.9162C31.8873 48.8567 31.8576 48.785 31.8576 48.7012V48.6971L31.8535 43.6022V43.5982C31.8535 43.5197 31.8819 43.4494 31.9387 43.3872C31.9982 43.325 32.0645 43.2939 32.1375 43.2939C32.2375 43.2939 32.316 43.3237 32.3728 43.3832C32.4323 43.44 32.462 43.5116 32.462 43.5982V43.6022L32.4661 48.6971V48.7012C32.4661 48.785 32.4363 48.8567 32.3768 48.9162C32.3173 48.9757 32.2457 49.0054 32.1618 49.0054ZM35.4216 48.9162C35.3378 48.9162 35.2661 48.8864 35.2066 48.8269C35.1471 48.7674 35.1174 48.6958 35.1174 48.6119L35.1052 43.6265V43.6225C35.1052 43.5387 35.1349 43.467 35.1944 43.4075C35.2539 43.348 35.3256 43.3183 35.4094 43.3183C35.4933 43.3183 35.5649 43.348 35.6244 43.4075C35.6839 43.467 35.7137 43.5387 35.7137 43.6225V43.6265L35.7258 48.3077H38.902C38.9859 48.3077 39.0575 48.3375 39.117 48.397C39.1765 48.4564 39.2063 48.5281 39.2063 48.6119C39.2063 48.6958 39.1765 48.7674 39.117 48.8269C39.0575 48.8864 38.9859 48.9162 38.902 48.9162H35.4216ZM41.5615 43.5698C41.5615 43.4994 41.5939 43.4386 41.6588 43.3872C41.7237 43.3331 41.7846 43.3061 41.8414 43.3061C41.936 43.3088 42.0158 43.3385 42.0807 43.3953C42.1456 43.4494 42.178 43.5211 42.178 43.6103V45.7643H45.4151V43.6103C45.4151 43.5265 45.4435 43.4548 45.5003 43.3953C45.5598 43.3358 45.6314 43.3061 45.7153 43.3061C45.8018 43.3061 45.8748 43.3358 45.9343 43.3953C45.9938 43.4548 46.0236 43.5278 46.0236 43.6144V48.6768C46.0236 48.7607 45.9925 48.8323 45.9303 48.8918C45.8708 48.9513 45.7991 48.9811 45.7153 48.9811C45.6314 48.9811 45.5598 48.9513 45.5003 48.8918C45.4435 48.8323 45.4151 48.7607 45.4151 48.6768V46.3728H42.178V48.689C42.178 48.7728 42.1483 48.8445 42.0888 48.904C42.032 48.9635 41.9617 48.9933 41.8779 48.9933C41.794 48.9933 41.7197 48.9635 41.6548 48.904C41.5926 48.8418 41.5615 48.7688 41.5615 48.685V43.5698ZM48.6586 49.0135C48.591 49.0135 48.5261 48.9838 48.4639 48.9243C48.4044 48.8648 48.3747 48.8026 48.3747 48.7377C48.3747 48.6728 48.3842 48.6214 48.4031 48.5835L50.6301 43.4927C50.649 43.4521 50.6842 43.4116 50.7356 43.371C50.7896 43.3304 50.8424 43.3101 50.8938 43.3101C51.0398 43.3101 51.1385 43.371 51.1899 43.4927L53.4209 48.5754C53.4372 48.6106 53.4453 48.6498 53.4453 48.6931C53.4453 48.7688 53.4196 48.8405 53.3682 48.9081C53.3195 48.973 53.256 49.0054 53.1775 49.0054C53.018 49.0054 52.9125 48.9432 52.8611 48.8188L52.0458 46.9569H49.7904L48.9588 48.8269C48.9074 48.9513 48.8074 49.0135 48.6586 49.0135ZM50.91 44.377L50.0541 46.3484H51.7781L50.91 44.377ZM61.2386 43.3061C61.7334 43.3034 62.1621 43.3832 62.5245 43.5454C62.8868 43.7077 63.1857 43.9267 63.4209 44.2026C63.6589 44.4784 63.836 44.7881 63.9523 45.1315C64.0686 45.4749 64.1268 45.8265 64.1268 46.1862C64.1268 46.5323 64.074 46.869 63.9686 47.1962C63.8658 47.5208 63.7116 47.8142 63.5061 48.0765C63.3033 48.3388 63.0531 48.547 62.7557 48.7012C62.4582 48.8553 62.1148 48.9338 61.7253 48.9365L59.7863 48.9283C59.7052 48.9256 59.6349 48.8972 59.5754 48.8432C59.5159 48.7891 59.4862 48.7201 59.4862 48.6363L59.5146 43.6347C59.5146 43.5535 59.543 43.4805 59.5997 43.4156C59.6592 43.3507 59.7295 43.3169 59.8107 43.3142L61.2386 43.3061ZM63.567 46.0969C63.567 45.5723 63.4547 45.1477 63.2303 44.8232C63.0085 44.4987 62.6962 44.2634 62.2932 44.1174C61.8903 43.9713 61.4211 43.9051 60.8856 43.9186L60.119 43.9348L60.0946 48.3361L61.198 48.3442C61.9768 48.355 62.5664 48.1725 62.9666 47.7966C63.3668 47.4207 63.567 46.8541 63.567 46.0969ZM66.6807 43.6184C66.6807 43.5346 66.7105 43.4629 66.7699 43.4034C66.8294 43.3439 66.9011 43.3142 66.9849 43.3142L70.7858 43.3183H70.7899C70.8737 43.3183 70.9454 43.348 71.0049 43.4075C71.0644 43.467 71.0941 43.5387 71.0941 43.6225C71.0941 43.7063 71.0644 43.778 71.0049 43.8375C70.9454 43.897 70.8737 43.9267 70.7899 43.9267H70.7858L67.2892 43.9227L67.2932 45.8292C67.3013 45.8292 67.3081 45.8292 67.3135 45.8292C67.3216 45.8265 67.3284 45.8252 67.3338 45.8252L70.4532 45.8454C70.5398 45.8454 70.6114 45.8752 70.6682 45.9347C70.7277 45.9915 70.7575 46.0699 70.7575 46.17C70.7575 46.2457 70.7264 46.3119 70.6642 46.3687C70.602 46.4255 70.5316 46.4539 70.4532 46.4539H70.4492L67.3297 46.4336H67.2973L67.3013 48.3199L70.7858 48.3158H70.7899C70.8737 48.3158 70.9454 48.3456 71.0049 48.4051C71.0644 48.4646 71.0941 48.5362 71.0941 48.6201C71.0941 48.7039 71.0644 48.7756 71.0049 48.835C70.9454 48.8945 70.8737 48.9243 70.7899 48.9243H70.7858L66.9971 48.9283C66.9133 48.9283 66.8416 48.8986 66.7821 48.8391C66.7226 48.7796 66.6929 48.7079 66.6929 48.6241L66.6807 43.6184ZM82.161 46.9366C82.2286 46.9366 82.2921 46.9664 82.3516 47.0259C82.4138 47.0854 82.4449 47.1476 82.4449 47.2125C82.4449 47.2801 82.4355 47.3328 82.4165 47.3707C82.2867 47.6627 82.1015 47.9332 81.8608 48.182C81.6228 48.4308 81.3389 48.6309 81.0089 48.7823C80.679 48.9338 80.3099 49.0095 79.9015 49.0095C79.4986 49.0095 79.1335 48.9351 78.8063 48.7864C78.4818 48.6376 78.2032 48.4321 77.9707 48.1698C77.7408 47.9048 77.5637 47.5992 77.4393 47.253C77.3176 46.9042 77.2567 46.5296 77.2567 46.1294C77.2567 45.7346 77.3189 45.3668 77.4433 45.026C77.5677 44.6826 77.7462 44.3824 77.9788 44.1255C78.2113 43.8659 78.4885 43.6631 78.8103 43.517C79.1349 43.371 79.4945 43.298 79.8894 43.298C80.2896 43.298 80.6533 43.3683 80.9806 43.5089C81.3105 43.6495 81.5958 43.8375 81.8365 44.0728C82.0799 44.308 82.2692 44.569 82.4044 44.8557C82.426 44.8989 82.4368 44.9449 82.4368 44.9936C82.4368 45.072 82.4084 45.1423 82.3516 45.2045C82.2975 45.264 82.2408 45.2938 82.1813 45.2938C82.019 45.2938 81.9108 45.2343 81.8567 45.1153C81.6972 44.7772 81.447 44.4919 81.1063 44.2594C80.7656 44.0241 80.3599 43.9064 79.8894 43.9064C79.4729 43.9064 79.1132 44.0065 78.8103 44.2066C78.5075 44.4067 78.2735 44.6758 78.1086 45.0139C77.9463 45.3492 77.8652 45.7251 77.8652 46.1416C77.8652 46.558 77.9463 46.938 78.1086 47.2814C78.2708 47.6222 78.5034 47.8939 78.8063 48.0968C79.1119 48.2969 79.4743 48.397 79.8934 48.397C80.2071 48.397 80.4924 48.3388 80.7493 48.2225C81.0089 48.1035 81.2334 47.9467 81.4227 47.752C81.6147 47.5573 81.7607 47.3477 81.8608 47.1232C81.9149 46.9988 82.0149 46.9366 82.161 46.9366ZM85.0029 49.0135C84.9353 49.0135 84.8704 48.9838 84.8082 48.9243C84.7487 48.8648 84.719 48.8026 84.719 48.7377C84.719 48.6728 84.7285 48.6214 84.7474 48.5835L86.9744 43.4927C86.9933 43.4521 87.0285 43.4116 87.0799 43.371C87.1339 43.3304 87.1867 43.3101 87.2381 43.3101C87.3841 43.3101 87.4828 43.371 87.5342 43.4927L89.7652 48.5754C89.7815 48.6106 89.7896 48.6498 89.7896 48.6931C89.7896 48.7688 89.7639 48.8405 89.7125 48.9081C89.6638 48.973 89.6003 49.0054 89.5218 49.0054C89.3623 49.0054 89.2568 48.9432 89.2054 48.8188L88.3901 46.9569H86.1347L85.3031 48.8269C85.2517 48.9513 85.1517 49.0135 85.0029 49.0135ZM87.2543 44.377L86.3984 46.3484H88.1224L87.2543 44.377ZM96.2945 48.7296C96.2945 48.808 96.2648 48.8756 96.2053 48.9324C96.1485 48.9892 96.0903 49.0176 96.0308 49.0176C95.9768 49.0176 95.9267 49.0041 95.8808 48.977C95.8348 48.9527 95.801 48.9338 95.7793 48.9202C95.5414 48.7499 95.3331 48.5511 95.1547 48.3239C94.9789 48.0968 94.8301 47.852 94.7084 47.5897C94.5949 47.3409 94.4745 47.1449 94.3474 47.0015C94.223 46.8555 94.0729 46.7514 93.8971 46.6892C93.7214 46.6243 93.4983 46.5905 93.2278 46.5878L92.7573 46.5837L92.7613 48.6647V48.6728C92.7613 48.7539 92.7302 48.8256 92.668 48.8878C92.6085 48.9473 92.5382 48.977 92.4571 48.977C92.3733 48.977 92.3016 48.9473 92.2421 48.8878C92.1826 48.8256 92.1529 48.7526 92.1529 48.6687L92.1407 43.5982C92.1407 43.5116 92.1704 43.44 92.2299 43.3832C92.2894 43.3264 92.3597 43.2966 92.4409 43.2939L93.5199 43.2899H93.6132C94.0702 43.2899 94.4732 43.3494 94.822 43.4683C95.1709 43.5873 95.444 43.7712 95.6414 44.02C95.8388 44.2661 95.9375 44.5825 95.9375 44.9692C95.9375 45.2397 95.8808 45.4776 95.7672 45.6832C95.6536 45.886 95.5049 46.0564 95.321 46.1943C95.1371 46.3322 94.9383 46.435 94.7247 46.5026C94.8464 46.6243 94.9667 46.8001 95.0857 47.0299C95.2425 47.3301 95.398 47.6005 95.5522 47.8412C95.7063 48.0819 95.9105 48.2942 96.1647 48.4781C96.2512 48.5403 96.2945 48.6241 96.2945 48.7296ZM93.6335 43.8983H92.7492L92.7573 46.0361C92.7708 46.0334 92.7884 46.032 92.81 46.032L93.6416 46.0239C94.1392 46.0185 94.5462 45.9347 94.8626 45.7724C95.179 45.6075 95.3372 45.333 95.3372 44.949C95.3372 44.6839 95.2601 44.4757 95.106 44.3243C94.9518 44.1701 94.7449 44.0606 94.4853 43.9957C94.2284 43.9308 93.9445 43.8983 93.6335 43.8983ZM102.921 48.7296C102.921 48.808 102.891 48.8756 102.832 48.9324C102.775 48.9892 102.717 49.0176 102.657 49.0176C102.603 49.0176 102.553 49.0041 102.507 48.977C102.461 48.9527 102.428 48.9338 102.406 48.9202C102.168 48.7499 101.96 48.5511 101.781 48.3239C101.606 48.0968 101.457 47.852 101.335 47.5897C101.221 47.3409 101.101 47.1449 100.974 47.0015C100.85 46.8555 100.7 46.7514 100.524 46.6892C100.348 46.6243 100.125 46.5905 99.8545 46.5878L99.3839 46.5837L99.388 48.6647V48.6728C99.388 48.7539 99.3569 48.8256 99.2947 48.8878C99.2352 48.9473 99.1649 48.977 99.0837 48.977C98.9999 48.977 98.9282 48.9473 98.8687 48.8878C98.8092 48.8256 98.7795 48.7526 98.7795 48.6687L98.7673 43.5982C98.7673 43.5116 98.7971 43.44 98.8566 43.3832C98.9161 43.3264 98.9864 43.2966 99.0675 43.2939L100.147 43.2899H100.24C100.697 43.2899 101.1 43.3494 101.449 43.4683C101.798 43.5873 102.071 43.7712 102.268 44.02C102.465 44.2661 102.564 44.5825 102.564 44.9692C102.564 45.2397 102.507 45.4776 102.394 45.6832C102.28 45.886 102.131 46.0564 101.948 46.1943C101.764 46.3322 101.565 46.435 101.351 46.5026C101.473 46.6243 101.593 46.8001 101.712 47.0299C101.869 47.3301 102.025 47.6005 102.179 47.8412C102.333 48.0819 102.537 48.2942 102.791 48.4781C102.878 48.5403 102.921 48.6241 102.921 48.7296ZM100.26 43.8983H99.3758L99.3839 46.0361C99.3974 46.0334 99.415 46.032 99.4366 46.032L100.268 46.0239C100.766 46.0185 101.173 45.9347 101.489 45.7724C101.806 45.6075 101.964 45.333 101.964 44.949C101.964 44.6839 101.887 44.4757 101.733 44.3243C101.578 44.1701 101.372 44.0606 101.112 43.9957C100.855 43.9308 100.571 43.8983 100.26 43.8983ZM105.394 43.6184C105.394 43.5346 105.424 43.4629 105.483 43.4034C105.543 43.3439 105.614 43.3142 105.698 43.3142L109.499 43.3183H109.503C109.587 43.3183 109.659 43.348 109.718 43.4075C109.778 43.467 109.807 43.5387 109.807 43.6225C109.807 43.7063 109.778 43.778 109.718 43.8375C109.659 43.897 109.587 43.9267 109.503 43.9267H109.499L106.002 43.9227L106.006 45.8292C106.015 45.8292 106.021 45.8292 106.027 45.8292C106.035 45.8265 106.042 45.8252 106.047 45.8252L109.166 45.8454C109.253 45.8454 109.325 45.8752 109.381 45.9347C109.441 45.9915 109.471 46.0699 109.471 46.17C109.471 46.2457 109.44 46.3119 109.377 46.3687C109.315 46.4255 109.245 46.4539 109.166 46.4539H109.162L106.043 46.4336H106.011L106.015 48.3199L109.499 48.3158H109.503C109.587 48.3158 109.659 48.3456 109.718 48.4051C109.778 48.4646 109.807 48.5362 109.807 48.6201C109.807 48.7039 109.778 48.7756 109.718 48.835C109.659 48.8945 109.587 48.9243 109.503 48.9243H109.499L105.71 48.9283C105.627 48.9283 105.555 48.8986 105.495 48.8391C105.436 48.7796 105.406 48.7079 105.406 48.6241L105.394 43.6184ZM112.67 49.0054C112.586 49.0054 112.514 48.9757 112.455 48.9162C112.395 48.8567 112.365 48.785 112.365 48.7012V48.6971L112.361 43.6022V43.5982C112.361 43.5197 112.39 43.4494 112.447 43.3872C112.506 43.325 112.572 43.2939 112.645 43.2939C112.745 43.2939 112.824 43.3237 112.881 43.3832C112.94 43.44 112.97 43.5116 112.97 43.5982V43.6022L112.974 48.6971V48.7012C112.974 48.785 112.944 48.8567 112.885 48.9162C112.825 48.9757 112.753 49.0054 112.67 49.0054ZM119.767 48.7296C119.767 48.808 119.737 48.8756 119.678 48.9324C119.621 48.9892 119.563 49.0176 119.503 49.0176C119.449 49.0176 119.399 49.0041 119.353 48.977C119.307 48.9527 119.273 48.9338 119.252 48.9202C119.014 48.7499 118.805 48.5511 118.627 48.3239C118.451 48.0968 118.302 47.852 118.181 47.5897C118.067 47.3409 117.947 47.1449 117.82 47.0015C117.695 46.8555 117.545 46.7514 117.369 46.6892C117.194 46.6243 116.971 46.5905 116.7 46.5878L116.23 46.5837L116.234 48.6647V48.6728C116.234 48.7539 116.203 48.8256 116.14 48.8878C116.081 48.9473 116.011 48.977 115.929 48.977C115.846 48.977 115.774 48.9473 115.714 48.8878C115.655 48.8256 115.625 48.7526 115.625 48.6687L115.613 43.5982C115.613 43.5116 115.643 43.44 115.702 43.3832C115.762 43.3264 115.832 43.2966 115.913 43.2939L116.992 43.2899H117.086C117.543 43.2899 117.945 43.3494 118.294 43.4683C118.643 43.5873 118.916 43.7712 119.114 44.02C119.311 44.2661 119.41 44.5825 119.41 44.9692C119.41 45.2397 119.353 45.4776 119.239 45.6832C119.126 45.886 118.977 46.0564 118.793 46.1943C118.609 46.3322 118.411 46.435 118.197 46.5026C118.319 46.6243 118.439 46.8001 118.558 47.0299C118.715 47.3301 118.87 47.6005 119.025 47.8412C119.179 48.0819 119.383 48.2942 119.637 48.4781C119.724 48.5403 119.767 48.6241 119.767 48.7296ZM117.106 43.8983H116.221L116.23 46.0361C116.243 46.0334 116.261 46.032 116.282 46.032L117.114 46.0239C117.612 46.0185 118.019 45.9347 118.335 45.7724C118.651 45.6075 118.81 45.333 118.81 44.949C118.81 44.6839 118.732 44.4757 118.578 44.3243C118.424 44.1701 118.217 44.0606 117.958 43.9957C117.701 43.9308 117.417 43.8983 117.106 43.8983ZM122.24 49.0135C122.172 49.0135 122.107 48.9838 122.045 48.9243C121.985 48.8648 121.956 48.8026 121.956 48.7377C121.956 48.6728 121.965 48.6214 121.984 48.5835L124.211 43.4927C124.23 43.4521 124.265 43.4116 124.317 43.371C124.371 43.3304 124.423 43.3101 124.475 43.3101C124.621 43.3101 124.72 43.371 124.771 43.4927L127.002 48.5754C127.018 48.6106 127.026 48.6498 127.026 48.6931C127.026 48.7688 127.001 48.8405 126.949 48.9081C126.901 48.973 126.837 49.0054 126.759 49.0054C126.599 49.0054 126.494 48.9432 126.442 48.8188L125.627 46.9569H123.371L122.54 48.8269C122.488 48.9513 122.388 49.0135 122.24 49.0135ZM124.491 44.377L123.635 46.3484H125.359L124.491 44.377Z" fill="white"/>
</svg>
